<?xml version="1.0" encoding="iso-8859-1"?>
<!-- Generator: Adobe Illustrator 19.2.1, SVG Export Plug-In . SVG Version: 6.00 Build 0)  -->
<svg version="1.1" id="Layer_1" xmlns="http://www.w3.org/2000/svg" xmlns:xlink="http://www.w3.org/1999/xlink" x="0px" y="0px"
	 viewBox="0 0 40 40" style="enable-background:new 0 0 40 40;" xml:space="preserve">
<g>
	<g>
		<polygon style="fill:#FFFFFF;" points="13.5,38.5 13.5,26.5 1.5,26.5 1.5,1.5 26.5,1.5 26.5,13.5 38.5,13.5 38.5,38.5 		"/>
	</g>
	<g>
		<path style="fill:#788B9C;" d="M26,2v11v1h1h11v24H14V27v-1h-1H2V2H26 M27,1H1v26h12v12h26V13H27V1L27,1z"/>
	</g>
</g>
<g>
	<g>
		<line style="fill:none;stroke:#788B9C;stroke-miterlimit:10;" x1="13.5" y1="26.499" x2="14.207" y2="25.792"/>
		
			<line style="fill:none;stroke:#788B9C;stroke-miterlimit:10;stroke-dasharray:1.8203,1.8203;" x1="15.494" y1="24.505" x2="25.149" y2="14.852"/>
		<line style="fill:none;stroke:#788B9C;stroke-miterlimit:10;" x1="25.793" y1="14.208" x2="26.5" y2="13.501"/>
	</g>
</g>
<g>
	<g>
		<polygon style="fill:#4E7AB5;" points="33,31 28,26 31,23 23,23 23,31 26,28 31,33 		"/>
	</g>
</g>
<g>
	<g>
		<polygon style="fill:#4E7AB5;" points="7,9 12,14 9,17 17,17 17,9 14,12 9,7 		"/>
	</g>
</g>
</svg>
